# xmcd
# Copyright (C) 1995-1998 Ti Kan
#
# Track frame offsets:
#       150
#       23109
#       42550
#       65237
#       85272
#       103636
#       131170
#       156354
#
# Disc length: 2351 seconds
#
# Revision: 0
# Processed by: cddbd v1.5.2PL0 Copyright (c) Steve Scherf et al.
# Submitted via: CD-Transfer v1.0
#
DISCID=70092d08
DTITLE=Bamwise - Bamwise
DYEAR=17
DGENRE=
TTITLE0=Tarantino
TTITLE1=Fury
TTITLE2=Down Under
TTITLE3=Strange Fis
TTITLE4=Stinger
TTITLE5=Sound Engineer
TTITLE6=Meditation
TTITLE7=Run From Sound
EXTD=
EXTT0=
EXTT1=
EXTT2=
EXTT3=
EXTT4=
EXTT5=
EXTT6=
EXTT7=
PLAYORDER=
